<?xml version="1.0" encoding="utf-8"?>
<!-- Generator: Adobe Illustrator 17.0.0, SVG Export Plug-In . SVG Version: 6.00 Build 0)  -->
<!DOCTYPE svg PUBLIC "-//W3C//DTD SVG 1.1//EN" "http://www.w3.org/Graphics/SVG/1.1/DTD/svg11.dtd">
<svg version="1.1" id="Capa_1" xmlns="http://www.w3.org/2000/svg" xmlns:xlink="http://www.w3.org/1999/xlink" x="0px" y="0px"
	 width="500px" height="500px" viewBox="0 0 500 500" enable-background="new 0 0 500 500" xml:space="preserve">
<path d="M482.562,129.521c-4.024-5.391-9.707-9.521-17.013-12.405c0.398,6.735-0.088,12.215-1.433,16.447l-86.478,284.496
	c-1.539,4.993-4.909,8.982-10.087,11.954c-5.183,2.972-10.556,4.475-16.137,4.475H85.368c-23.062,0-36.882-6.722-41.494-20.179
	c-1.932-5.201-1.831-9.327,0.279-12.405c2.123-2.883,5.767-4.316,10.95-4.316h250.484c17.879,0,30.231-3.317,37.037-9.95
	c6.841-6.633,13.696-21.386,20.626-44.241l78.96-261.159c4.232-14.218,2.508-26.706-5.183-37.466
	c-7.686-10.746-18.636-16.137-32.853-16.137H184.817c-2.503,0-7.394,0.867-14.7,2.591l0.292-0.862
	c-5.386-1.159-9.95-1.676-13.696-1.592c-3.75,0.106-7.204,1.212-10.384,3.317c-3.162,2.127-5.7,4.374-7.633,6.775
	c-1.919,2.401-3.786,5.475-5.616,9.225c-1.831,3.746-3.37,7.217-4.612,10.379c-1.243,3.18-2.693,6.532-4.321,10.092
	c-1.641,3.555-3.211,6.492-4.767,8.791c-1.136,1.535-2.782,3.56-4.887,6.063c-2.109,2.485-3.852,4.696-5.183,6.616
	c-1.349,1.937-2.211,3.662-2.609,5.201c-0.38,1.725-0.19,4.268,0.588,7.633c0.761,3.352,1.053,5.806,0.862,7.345
	c-0.774,7.306-3.418,16.584-7.929,27.812c-4.506,11.246-8.601,19.361-12.245,24.354c-0.778,0.968-2.888,3.126-6.342,6.496
	c-3.454,3.352-5.577,6.288-6.337,8.792c-0.778,0.951-0.814,3.648-0.159,8.071c0.677,4.422,0.933,7.496,0.73,9.225
	c-0.761,6.527-3.162,15.164-7.204,25.928c-4.042,10.759-8.071,19.604-12.113,26.516c-0.571,1.159-2.211,3.37-4.887,6.633
	c-2.698,3.264-4.338,5.961-4.909,8.066c-0.376,1.539-0.327,4.232,0.142,8.084c0.482,3.834,0.429,6.722-0.142,8.637
	c-1.534,7.292-4.422,16.084-8.654,26.379c-4.214,10.277-8.548,19.073-12.971,26.361c-1.141,1.937-2.728,4.183-4.749,6.77
	c-2.021,2.609-3.595,4.856-4.754,6.775c-1.154,1.933-1.915,3.954-2.313,6.063c-0.19,1.159,0.102,3.02,0.88,5.612
	c0.76,2.592,1.057,4.666,0.867,6.205c-0.208,2.693-0.588,6.253-1.159,10.675c-0.588,4.422-0.862,6.996-0.862,7.775
	c-4.237,11.538-4.046,23.734,0.566,36.603c5.373,14.996,14.943,27.622,28.679,37.917c13.749,10.277,28.002,15.408,42.804,15.408
	h266.05c12.489,0,24.252-4.179,35.308-12.537c11.038-8.363,18.397-18.675,22.041-30.992l79.257-261.142
	C491.977,152.857,490.253,140.47,482.562,129.521L482.562,129.521z M175.889,130.091l6.045-18.45
	c0.778-2.49,2.348-4.648,4.749-6.479c2.401-1.831,4.856-2.746,7.359-2.746h175.252c2.693,0,4.612,0.915,5.771,2.746
	c1.141,1.831,1.344,3.989,0.57,6.479l-6.05,18.45c-0.774,2.503-2.366,4.661-4.767,6.492c-2.401,1.818-4.851,2.733-7.341,2.733
	H182.226c-2.693,0-4.612-0.915-5.767-2.733C175.3,134.752,175.11,132.594,175.889,130.091L175.889,130.091z M151.964,203.886
	l6.045-18.45c0.778-2.503,2.348-4.661,4.767-6.479c2.401-1.831,4.838-2.746,7.341-2.746h175.252c2.693,0,4.612,0.915,5.771,2.746
	c1.137,1.817,1.344,3.976,0.571,6.479l-6.067,18.45c-0.756,2.49-2.348,4.648-4.75,6.479c-2.401,1.831-4.851,2.746-7.341,2.746
	H158.301c-2.693,0-4.612-0.915-5.771-2.746C151.393,208.534,151.186,206.376,151.964,203.886L151.964,203.886z M151.964,203.886"/>
</svg>
