<?xml version="1.0" encoding="utf-8"?>
<!-- Generator: Adobe Illustrator 17.0.0, SVG Export Plug-In . SVG Version: 6.00 Build 0)  -->
<!DOCTYPE svg PUBLIC "-//W3C//DTD SVG 1.1//EN" "http://www.w3.org/Graphics/SVG/1.1/DTD/svg11.dtd">
<svg version="1.1" id="Capa_1" xmlns="http://www.w3.org/2000/svg" xmlns:xlink="http://www.w3.org/1999/xlink" x="0px" y="0px"
	 width="500px" height="500px" viewBox="0 0 500 500" enable-background="new 0 0 500 500" xml:space="preserve">
<g>
	<path d="M183.406,275.376c0-6.148-4.984-11.132-11.141-11.132h-38.879c-6.147,0-11.136,4.984-11.136,11.132v38.873
		c0,6.158,4.989,11.142,11.136,11.142h38.879c6.157,0,11.141-4.984,11.141-11.142V275.376z M183.406,275.376"/>
	<path d="M280.578,275.376c0-6.148-4.989-11.132-11.132-11.132h-38.888c-6.148,0-11.137,4.984-11.137,11.132v38.873
		c0,6.158,4.989,11.142,11.137,11.142h38.888c6.143,0,11.132-4.984,11.132-11.142V275.376z M280.578,275.376"/>
	<path d="M377.754,275.376c0-6.148-4.988-11.132-11.136-11.132h-38.884c-6.152,0-11.141,4.984-11.141,11.132v38.873
		c0,6.158,4.989,11.142,11.141,11.142h38.884c6.148,0,11.136-4.984,11.136-11.142V275.376z M377.754,275.376"/>
	<path d="M183.406,372.557c0-6.162-4.984-11.141-11.141-11.141h-38.879c-6.147,0-11.136,4.979-11.136,11.141v38.869
		c0,6.153,4.989,11.136,11.136,11.136h38.879c6.157,0,11.141-4.983,11.141-11.136V372.557z M183.406,372.557"/>
	<path d="M280.578,372.557c0-6.162-4.989-11.141-11.132-11.141h-38.888c-6.148,0-11.137,4.979-11.137,11.141v38.869
		c0,6.153,4.989,11.136,11.137,11.136h38.888c6.143,0,11.132-4.983,11.132-11.136V372.557z M280.578,372.557"/>
	<path d="M377.754,372.557c0-6.162-4.988-11.141-11.131-11.141h-38.889c-6.152,0-11.141,4.979-11.141,11.141v38.869
		c0,6.153,4.989,11.136,11.141,11.136h38.889c6.143,0,11.131-4.983,11.131-11.136V372.557z M377.754,372.557"/>
	<path d="M447.277,59.217v59.378c0,26.839-21.776,48.469-48.611,48.469h-30.663c-26.839,0-48.901-21.629-48.901-48.469V59.001
		H180.897v59.594c0,26.839-22.062,48.469-48.895,48.469h-30.669c-26.834,0-48.606-21.629-48.606-48.469V59.217
		C29.272,59.923,10,79.329,10,103.182v347.997c0,24.305,19.7,44.265,44,44.265h392c24.266,0,44-20.004,44-44.265V103.182
		C490,79.329,470.728,59.923,447.277,59.217L447.277,59.217z M433.033,429.51c0,10.502-8.514,19.022-19.022,19.022H85.149
		c-10.502,0-19.022-8.52-19.022-19.022V249.755c0-10.503,8.515-19.027,19.022-19.027h328.861c10.508,0,19.022,8.524,19.022,19.027
		V429.51z M433.033,429.51"/>
	<path d="M101.225,135.23h30.33c9.206,0,16.67-7.453,16.67-16.659V21.222c0-9.206-7.464-16.665-16.67-16.665h-30.33
		c-9.206,0-16.67,7.459-16.67,16.665v97.349C84.555,127.777,92.019,135.23,101.225,135.23L101.225,135.23z M101.225,135.23"/>
	<path d="M367.615,135.23h30.33c9.201,0,16.665-7.453,16.665-16.659V21.222c0-9.206-7.464-16.665-16.665-16.665h-30.33
		c-9.206,0-16.67,7.459-16.67,16.665v97.349C350.945,127.777,358.409,135.23,367.615,135.23L367.615,135.23z M367.615,135.23"/>
</g>
</svg>
