<?xml version="1.0" encoding="utf-8"?>
<!-- Generator: Adobe Illustrator 17.0.0, SVG Export Plug-In . SVG Version: 6.00 Build 0)  -->
<!DOCTYPE svg PUBLIC "-//W3C//DTD SVG 1.1//EN" "http://www.w3.org/Graphics/SVG/1.1/DTD/svg11.dtd">
<svg version="1.1" id="Capa_1" xmlns="http://www.w3.org/2000/svg" xmlns:xlink="http://www.w3.org/1999/xlink" x="0px" y="0px"
	 width="500px" height="500px" viewBox="0 0 500 500" enable-background="new 0 0 500 500" xml:space="preserve">
<g>
	<path d="M203.887,113.88C96.818,113.88,10,180.598,10,263.053c0,40.351,20.958,77.048,54.931,103.862
		c-2.05,27.372-8.613,60.9-27.708,78.95c38.039,0,76.788-23.756,101.401-42.403c20.399,5.706,42.401,8.764,65.262,8.764
		c107.069,0,193.888-66.867,193.888-149.173C397.774,180.598,310.955,113.88,203.887,113.88L203.887,113.88z M203.887,113.88"/>
	<path d="M461.732,277.449c16.334-21.706,25.658-47.027,25.658-74.139c0-82.455-86.82-149.174-193.888-149.174
		c-47.213,0-90.473,12.979-124,34.385c15.739-2.909,32.371-4.513,49.414-4.513c115.198,0,208.73,73.43,208.73,164.016
		c0,35.689-14.431,68.767-39.045,95.731C413.102,362.402,451.999,386.27,490,386.27
		C462.926,360.649,461.023,303.703,461.732,277.449L461.732,277.449z M461.732,277.449"/>
</g>
</svg>
