<?xml version="1.0" encoding="utf-8"?>
<!-- Generator: Adobe Illustrator 17.0.0, SVG Export Plug-In . SVG Version: 6.00 Build 0)  -->
<!DOCTYPE svg PUBLIC "-//W3C//DTD SVG 1.1//EN" "http://www.w3.org/Graphics/SVG/1.1/DTD/svg11.dtd">
<svg version="1.1" id="Capa_1" xmlns="http://www.w3.org/2000/svg" xmlns:xlink="http://www.w3.org/1999/xlink" x="0px" y="0px"
	 width="500px" height="500px" viewBox="0 0 500 500" enable-background="new 0 0 500 500" xml:space="preserve">
<g>
	<path d="M441.99,25.995H58.01c-26.02,0-48.01,21.99-48.01,48.01v263.98c0,26.02,21.99,48.01,48.01,48.01h228.44l77.65,85.39
		c1.52,1.68,3.67,2.62,5.9,2.62c0.98,0,1.95-0.2,2.89-0.55c3.09-1.17,5.12-4.14,5.12-7.46v-80h63.98
		c26.02,0,48.01-21.99,48.01-48.01V74.005C490,47.985,468.01,25.995,441.99,25.995L441.99,25.995z M138.01,234.005
		c-17.66,0-31.99-14.38-31.99-31.99c0-17.66,14.33-32.04,31.99-32.04c17.65,0,31.99,14.38,31.99,32.04
		C170,219.625,155.66,234.005,138.01,234.005L138.01,234.005z M250,234.005c-17.66,0-31.99-14.38-31.99-31.99
		c0-17.66,14.33-32.04,31.99-32.04c17.66,0,31.99,14.38,31.99,32.04C281.99,219.625,267.66,234.005,250,234.005L250,234.005z
		 M361.99,234.005c-17.65,0-31.99-14.38-31.99-31.99c0-17.66,14.34-32.04,31.99-32.04c17.66,0,31.99,14.38,31.99,32.04
		C393.98,219.625,379.65,234.005,361.99,234.005L361.99,234.005z M361.99,234.005"/>
</g>
</svg>
