<?xml version="1.0" encoding="utf-8"?>
<!-- Generator: Adobe Illustrator 17.0.0, SVG Export Plug-In . SVG Version: 6.00 Build 0)  -->
<!DOCTYPE svg PUBLIC "-//W3C//DTD SVG 1.1//EN" "http://www.w3.org/Graphics/SVG/1.1/DTD/svg11.dtd">
<svg version="1.1" id="Capa_1" xmlns="http://www.w3.org/2000/svg" xmlns:xlink="http://www.w3.org/1999/xlink" x="0px" y="0px"
	 width="504.567px" height="500px" viewBox="0 0 504.567 500" enable-background="new 0 0 504.567 500" xml:space="preserve">
<path d="M372.288,42.153H132.279L12.283,250l119.996,207.847h240.008L492.283,250L372.288,42.153z M358.607,318.026
	c0,18.274-7.088,79.417-86.279,79.417c-47.846,0-73.434-18.77-89.213-42.814c-15.792-23.972-52.836-80.012-52.836-80.012
	c-6.705-10.477-4.324-23.873,5.373-30.011c9.739-6.04,23.037-2.495,29.842,7.967l22.994,31.458V142.265
	c0-9.413,7.584-16.998,16.998-16.998c9.357,0,16.998,7.585,16.998,16.998v85.059c0,3.105,2.552,5.642,5.642,5.642
	c3.161,0,5.712-2.538,5.712-5.642v-107.77c0-9.357,7.585-16.998,16.998-16.998c9.414,0,16.998,7.641,16.998,16.998v107.77
	c0,3.105,2.552,5.642,5.713,5.642c3.09,0,5.642-2.538,5.642-5.642V130.91c0-9.413,7.641-16.997,16.998-16.997
	c9.413,0,16.998,7.584,16.998,16.997v107.77c0,3.09,2.552,5.642,5.712,5.642c3.105,0,5.643-2.552,5.643-5.642v-73.775
	c0-9.357,7.641-16.998,16.997-16.998c9.413,0,17.069,7.641,17.069,16.998V318.026z"/>
</svg>
