<?xml version="1.0" encoding="utf-8"?>
<!-- Generator: Adobe Illustrator 17.0.0, SVG Export Plug-In . SVG Version: 6.00 Build 0)  -->
<!DOCTYPE svg PUBLIC "-//W3C//DTD SVG 1.1//EN" "http://www.w3.org/Graphics/SVG/1.1/DTD/svg11.dtd">
<svg version="1.1" id="Layer_1" xmlns="http://www.w3.org/2000/svg" xmlns:xlink="http://www.w3.org/1999/xlink" x="0px" y="0px"
	 width="500px" height="500px" viewBox="0 0 500 500" enable-background="new 0 0 500 500" xml:space="preserve">
<g>
	<g>
		<path fill="#181818" d="M439.243,96.709H112.427V37.476h326.816V96.709z M127.672,81.462h296.326V52.723H127.672V81.462z"/>
		<path fill="#181818" d="M397.755,158.393H284.831v-48.23h112.924V158.393z M300.076,143.154h82.434V125.41h-82.434V143.154z"/>
		<path fill="#181818" d="M416.383,232.927H224.629V217.68h191.753c2.048,0,3.959-0.789,5.383-2.207
			c1.411-1.425,2.239-3.417,2.239-5.417V32.872c0-1.44-0.393-3.555-2.266-5.448c-1.4-1.379-3.321-2.176-5.355-2.176H135.328
			c-1.869,0-3.997,0.797-5.455,2.237c-1.387,1.417-2.201,3.363-2.201,5.386l0.033,177.177c-0.015,2.038,0.797,4.007,2.237,5.463
			c1.866,1.885,4.175,2.168,5.386,2.168h37.537v15.247h-37.537c-6.191,0-11.954-2.383-16.227-6.696
			c-4.275-4.337-6.691-10.251-6.641-16.235l-0.033-177.123c0-6.022,2.354-11.753,6.637-16.136
			c4.415-4.367,10.286-6.804,16.329-6.735h280.989c6.078,0,11.807,2.36,16.136,6.642c4.359,4.406,6.733,10.144,6.733,16.228v177.185
			c0,5.984-2.433,11.883-6.677,16.166C428.243,230.551,422.503,232.927,416.383,232.927z"/>
		<g>
			<rect x="350.298" y="181.011" fill="#181818" width="47.457" height="15.247"/>
			<rect x="284.831" y="181.011" fill="#181818" width="47.457" height="15.247"/>
		</g>
	</g>
	<path fill="#181818" d="M387.565,490H372.32V289.355c0-4.858-1.91-9.447-5.373-12.925c-3.456-3.456-8.028-5.363-12.864-5.363
		c-4.883,0-9.463,1.9-12.9,5.355c-3.509,3.494-5.428,8.075-5.428,12.933v0.007c0,0.008,0,0.008,0,0.015
		c0,4.206-3.415,7.624-7.624,7.624c-4.208,0-7.621-3.417-7.621-7.624c0-4.896-1.896-9.493-5.341-12.948
		c-3.44-3.463-8.02-5.363-12.897-5.363c-4.85,0-9.416,1.9-12.852,5.355c-3.511,3.486-5.423,8.068-5.423,12.956
		c0,4.206-3.415,7.624-7.623,7.624c-4.205,0-7.616-3.409-7.624-7.616v-0.008c0-4.926-1.892-9.516-5.323-12.963
		c-3.45-3.44-8.039-5.348-12.906-5.348c-4.863,0-9.457,1.908-12.929,5.363c-3.438,3.448-5.34,8.044-5.34,12.925
		c0,4.206-3.415,7.623-7.623,7.623c-4.208,0-7.622-3.417-7.622-7.623V152.831c0-4.888-1.9-9.47-5.348-12.902
		c-3.446-3.456-8.029-5.348-12.916-5.348c-4.867,0-9.445,1.9-12.897,5.34c-3.457,3.432-5.351,8.006-5.351,12.91v233.223
		c0,2.896-1.642,5.539-4.233,6.834c-2.597,1.287-5.691,0.988-7.999-0.759c-21.472-16.296-47.074-24.908-74.027-24.908
		c-10.058,0-18.243,8.198-18.243,18.265c0,10.075,8.185,18.266,18.243,18.266c47.562,0,86.26,38.692,86.26,86.248h-15.247
		c0-39.151-31.857-71.001-71.013-71.001c-18.465,0-33.487-15.032-33.487-33.512c0-18.48,15.023-33.505,33.487-33.505
		c25.343,0,49.621,6.773,71.013,19.698V152.831c0-8.995,3.498-17.415,9.843-23.72c6.315-6.298,14.72-9.776,23.652-9.776
		c8.966,0,17.381,3.486,23.692,9.807c6.327,6.298,9.816,14.718,9.816,23.69v108.414c5.406-3.532,11.699-5.424,18.27-5.424
		c8.935,0,17.35,3.486,23.688,9.822c0.778,0.781,1.515,1.593,2.207,2.436c0.699-0.843,1.442-1.663,2.232-2.444
		c6.282-6.313,14.685-9.814,23.625-9.814c8.966,0,17.383,3.501,23.698,9.853c0.776,0.774,1.505,1.586,2.195,2.421
		c0.705-0.85,1.452-1.663,2.243-2.452c6.286-6.321,14.705-9.822,23.675-9.822c8.91,0,17.31,3.494,23.652,9.838
		c6.344,6.367,9.83,14.779,9.83,23.698V490z"/>
</g>
</svg>
