<?xml version="1.0" encoding="utf-8"?>
<!-- Generator: Adobe Illustrator 17.0.0, SVG Export Plug-In . SVG Version: 6.00 Build 0)  -->
<!DOCTYPE svg PUBLIC "-//W3C//DTD SVG 1.1//EN" "http://www.w3.org/Graphics/SVG/1.1/DTD/svg11.dtd">
<svg version="1.1" id="Layer_1" xmlns="http://www.w3.org/2000/svg" xmlns:xlink="http://www.w3.org/1999/xlink" x="0px" y="0px"
	 width="501.732px" height="500px" viewBox="0 0 501.732 500" enable-background="new 0 0 501.732 500" xml:space="preserve">
<g>
	<g>
		<path fill="#181818" d="M227.153,383.875l-183.811-91.91v-83.932l183.811-91.91V383.875z M58.29,282.729l153.916,76.96V140.311
			L58.29,217.271V282.729z"/>
		<path fill="#181818" d="M58.29,307.302H10.866V192.698H58.29V307.302z M25.814,292.353h17.528v-84.705H25.814V292.353z"/>
		<path fill="#181818" d="M259.629,387.372h-47.423V112.627h47.423V387.372z M227.153,372.427h17.526v-244.85h-17.526V372.427z"/>
	</g>
	<g>
		<polygon fill="#181818" points="283.417,199.128 272.847,188.558 348.778,112.627 379.481,112.627 379.481,127.577 
			354.968,127.577 		"/>
		<polygon fill="#181818" points="379.481,387.372 348.778,387.372 272.847,311.441 283.417,300.871 354.968,372.427 
			379.481,372.427 		"/>
		<rect x="278.132" y="242.527" fill="#181818" width="101.349" height="14.949"/>
	</g>
	<g>
		<path fill="#181818" d="M490.866,431.21H388.24V328.584h102.626V431.21z M403.186,416.264h72.731v-72.731h-72.731V416.264z"/>
		<g>
			<rect x="416.825" y="356.654" fill="#181818" width="45.461" height="14.946"/>
			<rect x="416.825" y="388.198" fill="#181818" width="45.461" height="14.946"/>
		</g>
	</g>
	<g>
		<path fill="#181818" d="M490.866,171.415H388.24V68.79h102.626V171.415z M403.186,156.466h72.731V83.735h-72.731V156.466z"/>
		<g>
			<rect x="416.825" y="96.855" fill="#181818" width="45.461" height="14.95"/>
			<rect x="416.825" y="128.4" fill="#181818" width="45.461" height="14.949"/>
		</g>
	</g>
	<g>
		<path fill="#181818" d="M490.866,301.315H388.24v-102.63h102.626V301.315z M403.186,286.369h72.731v-72.738h-72.731V286.369z"/>
		<g>
			<rect x="416.825" y="226.755" fill="#181818" width="45.461" height="14.949"/>
			<rect x="416.825" y="258.299" fill="#181818" width="45.461" height="14.949"/>
		</g>
	</g>
	<g>
		<rect x="73.237" y="242.527" fill="#181818" width="14.949" height="14.946"/>
		<rect x="103.135" y="242.527" fill="#181818" width="14.948" height="14.946"/>
		<rect x="133.03" y="242.527" fill="#181818" width="14.948" height="14.946"/>
	</g>
</g>
</svg>
