<?xml version="1.0" encoding="utf-8"?>
<!-- Generator: Adobe Illustrator 17.0.0, SVG Export Plug-In . SVG Version: 6.00 Build 0)  -->
<!DOCTYPE svg PUBLIC "-//W3C//DTD SVG 1.1//EN" "http://www.w3.org/Graphics/SVG/1.1/DTD/svg11.dtd">
<svg version="1.1" id="Layer_1" xmlns="http://www.w3.org/2000/svg" xmlns:xlink="http://www.w3.org/1999/xlink" x="0px" y="0px"
	 width="500px" height="500px" viewBox="0 0 500 500" enable-background="new 0 0 500 500" xml:space="preserve">
<g>
	<g>
		<path fill="#181818" d="M96.312,484.048H10v-51.285h86.312V484.048z M26.266,467.782h53.781v-18.753H26.266V467.782z"/>
		<path fill="#181818" d="M96.312,449.028H10v-51.293h86.312V449.028z M26.266,432.762h53.781v-18.761H26.266V432.762z"/>
		<path fill="#181818" d="M96.312,414.001H10v-51.297h86.312V414.001z M26.266,397.735h53.781v-18.761H26.266V397.735z"/>
	</g>
	<g>
		<path fill="#181818" d="M419.945,484.048h-86.312v-51.285h86.312V484.048z M349.899,467.782h53.781v-18.753h-53.781V467.782z"/>
		<path fill="#181818" d="M419.945,449.028h-86.312v-51.293h86.312V449.028z M349.899,432.762h53.781v-18.761h-53.781V432.762z"/>
		<path fill="#181818" d="M490,484.048h-86.321v-51.285H490V484.048z M419.945,467.782h53.789v-18.753h-53.789V467.782z"/>
		<path fill="#181818" d="M490,449.028h-86.321v-51.293H490V449.028z M419.945,432.762h53.789v-18.761h-53.789V432.762z"/>
		<path fill="#181818" d="M419.945,414.001h-86.312v-51.297h86.312V414.001z M349.899,397.735h53.781v-18.761h-53.781V397.735z"/>
		<path fill="#181818" d="M419.945,378.974h-86.312V327.68h86.312V378.974z M349.899,362.704h53.781v-18.758h-53.781V362.704z"/>
	</g>
	<g>
		<path fill="#181818" d="M291.561,166.928h-119.54v-59.656h119.54V166.928z M188.287,150.662h87.008v-27.123h-87.008V150.662z"/>
		<path fill="#181818" d="M286.717,123.538H176.783l-48.519-48.528c-6.587-6.513-10.228-15.235-10.228-24.522
			c0-19.048,15.489-34.537,34.52-34.537c10.596,0,20.087,4.778,26.428,12.298c6.341-7.52,15.832-12.298,26.412-12.298
			c10.579,0,20.054,4.778,26.395,12.298c6.341-7.52,15.832-12.298,26.412-12.298c10.579,0,20.063,4.778,26.404,12.298
			c6.341-7.52,15.832-12.298,26.42-12.298c19.032,0,34.52,15.489,34.52,34.537c0,9.556-4.05,18.79-11.103,25.328L286.717,123.538z
			 M183.525,107.272h96.458l43.177-43.177c4.025-3.731,6.12-8.489,6.12-13.607c0-10.076-8.19-18.271-18.254-18.271
			c-10.088,0-18.295,8.195-18.295,18.271h-16.266c0-10.076-8.19-18.271-18.262-18.271c-10.08,0-18.278,8.195-18.278,18.271h-16.266
			c0-10.076-8.19-18.271-18.262-18.271c-10.08,0-18.279,8.195-18.279,18.271h-16.266c0-10.076-8.199-18.271-18.279-18.271
			c-10.08,0-18.27,8.195-18.27,18.271c0,4.909,1.931,9.524,5.433,12.989L183.525,107.272z"/>
		<g>
			<path fill="#181818" d="M231.791,414.59c-46.343,0-84.038-37.703-84.038-84.046c0-46.335,37.695-84.038,84.038-84.038
				s84.046,37.703,84.046,84.038C315.837,376.887,278.134,414.59,231.791,414.59z M231.791,262.772
				c-37.367,0-67.772,30.404-67.772,67.772c0,37.376,30.404,67.78,67.772,67.78c37.376,0,67.78-30.404,67.78-67.78
				C299.571,293.177,269.166,262.772,231.791,262.772z"/>
			<g>
				<path fill="#181818" d="M237.387,372.24h-11.193c-6.636,0-12.887-2.577-17.6-7.274c-4.713-4.721-7.298-10.98-7.298-17.64h16.266
					c0,2.324,0.892,4.5,2.52,6.132c1.628,1.616,3.805,2.516,6.112,2.516h11.193c2.299,0,4.484-0.908,6.161-2.561
					c1.579-1.591,2.479-3.772,2.479-6.087c0-2.307-0.892-4.476-2.52-6.104c-1.636-1.632-3.821-2.545-6.12-2.545h-11.193
					c-6.652,0-12.911-2.586-17.616-7.294c-4.697-4.697-7.282-10.951-7.282-17.612c0-6.66,2.586-12.92,7.274-17.624
					c4.746-4.713,10.997-7.29,17.624-7.29h11.193c6.595,0,12.846,2.569,17.583,7.241c4.746,4.778,7.323,11.034,7.323,17.673h-16.266
					c0-2.315-0.9-4.5-2.537-6.145c-1.612-1.595-3.805-2.503-6.104-2.503h-11.193c-2.307,0-4.484,0.904-6.136,2.54
					c-1.604,1.608-2.495,3.784-2.495,6.108c0,2.315,0.892,4.484,2.52,6.112c1.628,1.632,3.797,2.528,6.112,2.528h11.193
					c6.627,0,12.878,2.594,17.608,7.294c4.713,4.717,7.298,10.968,7.298,17.62c0,6.639-2.577,12.895-7.266,17.608
					C250.233,369.667,243.99,372.24,237.387,372.24z"/>
				<rect x="223.658" y="283.563" fill="#181818" width="16.266" height="13.427"/>
				<rect x="223.658" y="364.107" fill="#181818" width="16.266" height="13.431"/>
			</g>
		</g>
		<path fill="#181818" d="M74.572,371.814l-16.151-1.956c1.677-13.836,6.022-26.903,12.911-38.849l104.125-180.348h112.659
			l104.468,180.97l-14,8.305c-0.172-0.303-0.336-0.614-0.499-0.92l-99.363-172.089h-93.881l-99.42,172.216
			C79.629,349.175,75.98,360.167,74.572,371.814z"/>
		<path fill="#181818" d="M303.891,484.048H159.683c-29.996,0-58.322-13.103-77.705-35.956l-1.931-2.279v-4.917h10.416l3.919-3.326
			c16.29,19.199,40.092,30.212,65.301,30.212h144.208c11.913,0,23.556-2.463,34.594-7.323l6.554,14.883
			C331.923,481.118,318.079,484.048,303.891,484.048z"/>
	</g>
</g>
</svg>
