<?xml version="1.0" encoding="utf-8"?>
<!-- Generator: Adobe Illustrator 17.0.0, SVG Export Plug-In . SVG Version: 6.00 Build 0)  -->
<!DOCTYPE svg PUBLIC "-//W3C//DTD SVG 1.1//EN" "http://www.w3.org/Graphics/SVG/1.1/DTD/svg11.dtd">
<svg version="1.1" id="Layer_1" xmlns="http://www.w3.org/2000/svg" xmlns:xlink="http://www.w3.org/1999/xlink" x="0px" y="0px"
	 width="503px" height="500px" viewBox="0 0 503 500" enable-background="new 0 0 503 500" xml:space="preserve">
<path d="M491.5,70.375C491.5,37.031,464.469,10,431.125,10H68.875C35.531,10,8.5,37.031,8.5,70.375v362.25
	C8.5,465.969,35.531,493,68.875,493h362.25c33.344,0,60.375-27.031,60.375-60.375V70.375z M341.5,132.731l-34.052,0.012
	c-25.719,0-31.948,12.228-31.948,30.181V202h63.052l-0.018,60H275.5v162h-60V262h-54v-60h54v-45.216
	c0-53.029,31.633-81.913,78.949-81.913l47.051,0.074V132.731z"/>
</svg>
