<?xml version="1.0" encoding="utf-8"?>
<!-- Generator: Adobe Illustrator 17.0.0, SVG Export Plug-In . SVG Version: 6.00 Build 0)  -->
<!DOCTYPE svg PUBLIC "-//W3C//DTD SVG 1.1//EN" "http://www.w3.org/Graphics/SVG/1.1/DTD/svg11.dtd">
<svg version="1.1" id="Capa_1" xmlns="http://www.w3.org/2000/svg" xmlns:xlink="http://www.w3.org/1999/xlink" x="0px" y="0px"
	 width="500px" height="500px" viewBox="0 0 500 500" enable-background="new 0 0 500 500" xml:space="preserve">
<path d="M299.655,117.351c22.194,13.927,37.761,37.469,40.591,64.821c9.038,4.208,19.101,6.634,29.748,6.634
	c38.876,0,70.4-31.501,70.4-70.369c0-38.899-31.523-70.4-70.4-70.4C331.477,48.038,300.239,78.977,299.655,117.351L299.655,117.351z
	 M253.523,261.49c38.906,0,70.407-31.501,70.407-70.399c0-38.869-31.501-70.37-70.407-70.37c-38.869,0-70.399,31.501-70.399,70.4
	C183.124,229.989,214.654,261.49,253.523,261.49L253.523,261.49z M283.392,266.29h-59.729c-49.696,0-90.145,40.448-90.145,90.145
	v73.065l0.202,1.138l5.032,1.58c47.412,14.803,88.625,19.745,122.551,19.745c66.251,0,104.626-18.869,107.022-20.097l4.68-2.366
	h0.502v-73.065C373.536,306.738,333.08,266.29,283.392,266.29L283.392,266.29z M399.855,193.636h-59.258
	c-0.644,23.691-10.76,45.068-26.791,60.426c44.2,13.133,76.517,54.084,76.517,102.492v22.493
	c58.524-2.142,92.249-18.719,94.473-19.835l4.68-2.396H490v-73.065C490,234.055,449.551,193.636,399.855,193.636L399.855,193.636z
	 M130.005,188.836c13.777,0,26.589-4.036,37.439-10.879c3.452-22.493,15.537-42.178,32.759-55.574c0.06-1.31,0.21-2.598,0.21-3.946
	c0-38.869-31.531-70.4-70.407-70.4c-38.869,0-70.4,31.531-70.4,70.4C59.606,157.306,91.137,188.836,130.005,188.836L130.005,188.836
	z M193.247,254.062c-15.941-15.297-26.035-36.533-26.769-60.104c-2.194-0.15-4.388-0.322-6.604-0.322h-59.73
	C50.419,193.636,10,234.055,10,283.751v73.065l0.172,1.138l5.032,1.58c38.052,11.876,72.009,17.349,101.526,19.071v-22.051
	C116.73,308.146,149.047,267.196,193.247,254.062L193.247,254.062z M193.247,254.062"/>
</svg>
