<?xml version="1.0" encoding="utf-8"?>
<!-- Generator: Adobe Illustrator 17.0.0, SVG Export Plug-In . SVG Version: 6.00 Build 0)  -->
<!DOCTYPE svg PUBLIC "-//W3C//DTD SVG 1.1//EN" "http://www.w3.org/Graphics/SVG/1.1/DTD/svg11.dtd">
<svg version="1.1" id="Layer_1" xmlns="http://www.w3.org/2000/svg" xmlns:xlink="http://www.w3.org/1999/xlink" x="0px" y="0px"
	 width="500px" height="500px" viewBox="0 0 500 500" enable-background="new 0 0 500 500" xml:space="preserve">
<g>
	<g>
		<path fill="#181818" d="M273.605,197.284c-2.388,0-4.799-0.215-7.171-0.629c-5.964-1.048-11.544-3.377-16.433-6.808
			c-4.889,3.439-10.466,5.76-16.426,6.808c-10.802,1.884-21.835-0.579-30.757-6.824c-1.278-0.895-2.208-2.111-2.751-3.466
			c-4.998,2.11-10.411,3.22-15.976,3.22l-0.735-0.008c-11.002-0.199-21.26-4.662-28.889-12.568c-1.09-1.129-1.77-2.501-2.044-3.935
			c-5.526,1.165-11.369,1.165-17.004-0.027c-10.759-2.286-19.974-8.629-25.961-17.856c-0.852-1.313-1.258-2.798-1.251-4.252
			c-5.784-0.047-11.38-1.016-16.703-3.275c-10.11-4.299-17.946-12.271-22.065-22.452c-0.574-1.419-0.715-2.958-0.422-4.436
			c-5.612-1-10.966-3.165-15.765-6.405c-9.106-6.136-15.28-15.464-17.379-26.258c-0.293-1.489-0.136-3.025,0.43-4.412
			c-5.28-2.044-10.126-5.182-14.249-9.301C14.279,66.632,10,56.299,10,45.302c0-4.291,3.478-7.777,7.773-7.777h166.813
			c4.295,0,7.777,3.486,7.777,7.777c0,31.781,25.856,57.636,57.641,57.636c31.777,0,57.629-25.856,57.629-57.636
			c0-4.291,3.482-7.777,7.777-7.777h166.813c4.295,0,7.777,3.486,7.777,7.777c0,11.013-4.28,21.342-12.053,29.099
			c-4.119,4.116-8.961,7.253-14.241,9.294c0.555,1.352,0.731,2.873,0.433,4.416c-2.095,10.779-8.266,20.107-17.387,26.262
			c-4.799,3.236-10.153,5.401-15.765,6.401c0.293,1.477,0.156,3.013-0.418,4.432c-4.119,10.181-11.955,18.149-22.069,22.452
			c-5.319,2.263-10.923,3.326-16.699,3.279c0.008,1.454-0.399,2.939-1.251,4.252c-5.983,9.227-15.206,15.57-25.961,17.856
			c-5.647,1.192-11.486,1.188-17.02,0.023c-0.273,1.434-0.95,2.806-2.036,3.935c-7.617,7.906-17.876,12.373-28.877,12.572
			l-0.738,0.008c-5.565,0-10.978-1.11-15.98-3.22c-0.543,1.356-1.474,2.568-2.751,3.462
			C290.234,194.705,282.078,197.284,273.605,197.284z M250.004,171.94L250.004,171.94c2.067,0,4.049,0.821,5.506,2.282
			c3.733,3.744,8.442,6.206,13.62,7.117c4.228,0.743,8.566,0.418,12.529-0.91l-12.526-20.064c-2.075-3.322-1.352-7.668,1.681-10.146
			c3.029-2.47,7.429-2.313,10.278,0.391l17.012,16.195c4.842,4.674,11.158,7.23,17.813,7.23l0.465-0.008
			c4.158-0.078,8.144-1.133,11.697-3.052l-23.523-22.718c-2.877-2.783-3.174-7.3-0.68-10.435c2.489-3.138,6.952-3.861,10.321-1.684
			l27.9,18.114c5.67,3.693,12.607,4.994,19.259,3.58c4.072-0.864,7.788-2.665,10.911-5.237l-27.431-17.817
			c-3.357-2.177-4.514-6.558-2.665-10.11c1.852-3.556,6.093-5.128,9.813-3.619l30.843,12.459c6.288,2.54,13.334,2.501,19.587-0.164
			c3.83-1.626,7.129-4.096,9.708-7.207l-30.331-12.264c-3.713-1.501-5.678-5.581-4.541-9.418c1.141-3.845,5.018-6.167,8.942-5.425
			l32.664,6.359c6.601,1.278,13.588-0.121,19.197-3.912c3.451-2.326,6.222-5.382,8.16-8.926l-32.121-6.245
			c-3.931-0.766-6.64-4.392-6.257-8.383c0.383-3.982,3.736-7.031,7.742-7.031h33.277c6.839,0,13.264-2.662,18.103-7.496
			c2.939-2.935,5.076-6.464,6.296-10.317H322.773c-3.893,36.717-35.044,65.414-72.769,65.414c-37.733,0-68.888-28.697-72.784-65.414
			H26.746c1.223,3.853,3.361,7.379,6.3,10.317c4.838,4.834,11.267,7.496,18.099,7.496h33.269c4.006,0,7.355,3.048,7.742,7.031
			c0.383,3.986-2.326,7.617-6.257,8.383l-32.101,6.245c1.934,3.544,4.705,6.605,8.152,8.926c5.616,3.791,12.569,5.182,19.209,3.912
			l32.648-6.359c3.959-0.742,7.804,1.587,8.941,5.425c1.141,3.838-0.824,7.918-4.541,9.418L87.88,126.137
			c2.58,3.111,5.882,5.585,9.708,7.21c6.249,2.658,13.307,2.704,19.588,0.16l30.85-12.459c3.717-1.505,7.961,0.062,9.809,3.619
			c1.849,3.552,0.7,7.933-2.661,10.11l-27.435,17.817c3.123,2.572,6.843,4.373,10.912,5.237c6.636,1.411,13.588,0.109,19.255-3.576
			l27.904-18.118c3.361-2.173,7.828-1.45,10.321,1.684c2.494,3.134,2.197,7.652-0.684,10.435l-23.527,22.714
			c3.556,1.923,7.551,2.978,11.713,3.056l0.457,0.008c6.652,0,12.959-2.556,17.77-7.195l17.051-16.23
			c2.833-2.7,7.238-2.869,10.274-0.391c3.037,2.478,3.756,6.824,1.68,10.146l-12.521,20.06c3.967,1.325,8.293,1.657,12.534,0.914
			c5.17-0.91,9.883-3.373,13.624-7.117C245.959,172.761,247.94,171.94,250.004,171.94z"/>
		<rect x="242.227" y="78.642" fill="#181818" width="15.554" height="417.177"/>
		<path fill="#181818" d="M250.004,86.419c-22.675,0-41.121-18.446-41.121-41.117c0-22.675,18.446-41.121,41.121-41.121
			c22.675,0,41.125,18.446,41.125,41.121C291.129,67.973,272.679,86.419,250.004,86.419z M250.004,19.735
			c-14.101,0-25.567,11.47-25.567,25.567c0,14.096,11.466,25.566,25.567,25.566c14.1,0,25.571-11.47,25.571-25.566
			C275.575,31.205,264.104,19.735,250.004,19.735z"/>
	</g>
	<g>
		<path fill="#181818" d="M299.254,365.797L288.999,354.1c6.812-5.968,10.411-13.014,10.411-20.373
			c0-8.473-4.823-16.609-13.577-22.913c-9.34-6.757-22.393-10.626-35.829-10.626c-20.69,0-40.25-5.894-55.073-16.598
			c-15.577-11.232-24.156-26.438-24.156-42.813c0-16.34,8.578-31.538,24.152-42.794l9.11,12.608
			c-11.419,8.254-17.711,18.974-17.711,30.186c0,11.239,6.288,21.967,17.708,30.201c12.197,8.809,28.521,13.659,45.971,13.659
			c16.875,0,32.835,4.815,44.931,13.565c12.909,9.297,20.029,21.916,20.029,35.524C314.964,345.526,309.384,356.917,299.254,365.797
			z"/>
		<path fill="#181818" d="M274.734,478.545l-9.078-12.623c3.302-2.376,5.12-5.315,5.12-8.273c0-2.986-1.81-5.921-5.096-8.266
			c-4.029-2.939-9.716-4.596-15.675-4.596c-12.698,0-24.812-3.572-34.133-10.052c-0.324-0.211-0.594-0.407-0.887-0.637
			c-3.521-2.54-6.503-5.444-8.856-8.637c-4.381-5.702-6.746-12.479-6.746-19.466c0-5.721,1.56-11.201,4.631-16.281l13.311,8.043
			c-1.586,2.626-2.388,5.393-2.388,8.238c0,3.584,1.215,6.988,3.615,10.114c1.512,2.044,3.384,3.845,5.659,5.467l0.45,0.324
			c6.749,4.729,15.749,7.332,25.344,7.332c9.317,0,18.114,2.681,24.773,7.538c7.316,5.218,11.552,12.842,11.552,20.877
			C286.33,465.629,282.101,473.246,274.734,478.545z"/>
		<path fill="#181818" d="M303.756,284.493l-8.34-13.131l0.465-0.317c11.513-8.305,17.802-19.032,17.802-30.268
			c0-11.208-6.292-21.928-17.716-30.186l9.114-12.608c15.577,11.263,24.152,26.466,24.152,42.794
			c0,16.367-8.578,31.569-24.16,42.813C304.495,284,304.158,284.235,303.756,284.493z"/>
		<path fill="#181818" d="M225.246,478.538c-7.23-5.214-11.329-12.385-11.541-20.19l15.546-0.418c0.078,2.841,1.888,5.686,5.096,8
			L225.246,478.538z"/>
		<path fill="#181818" d="M293.825,425.563l-12.365-9.438c2.4-3.138,3.611-6.546,3.611-10.13c0-5.706-3.306-11.232-9.305-15.57
			c-6.702-4.842-16.09-7.621-25.762-7.621c-16.864,0-32.824-4.811-44.947-13.55c-12.877-9.317-19.963-21.932-19.963-35.528
			c0-10.767,4.455-20.963,12.885-29.486l11.06,10.935c-5.487,5.553-8.39,11.97-8.39,18.552c0,8.473,4.799,16.613,13.514,22.917
			c9.348,6.742,22.413,10.61,35.841,10.61c13.065,0,25.449,3.752,34.868,10.568c10.157,7.327,15.753,17.34,15.753,28.173
			C300.625,412.967,298.273,419.736,293.825,425.563z"/>
	</g>
</g>
</svg>
