<?xml version="1.0" encoding="utf-8"?>
<!-- Generator: Adobe Illustrator 17.0.0, SVG Export Plug-In . SVG Version: 6.00 Build 0)  -->
<!DOCTYPE svg PUBLIC "-//W3C//DTD SVG 1.1//EN" "http://www.w3.org/Graphics/SVG/1.1/DTD/svg11.dtd">
<svg version="1.1" id="Capa_1" xmlns="http://www.w3.org/2000/svg" xmlns:xlink="http://www.w3.org/1999/xlink" x="0px" y="0px"
	 width="500px" height="500px" viewBox="0 0 500 500" enable-background="new 0 0 500 500" xml:space="preserve">
<g>
	<path d="M375.285,137.284c0-69.786-56.302-126.383-125.74-126.383S123.794,67.498,123.794,137.284
		c0,99.982,125.752,247.924,125.752,247.924S375.285,236.723,375.285,137.284L375.285,137.284z M187.561,129.693
		c0-34.42,27.725-62.296,61.985-62.296c34.248,0,62.036,27.876,62.036,62.296c0,34.432-27.788,62.359-62.036,62.359
		C215.285,192.053,187.561,164.126,187.561,129.693L187.561,129.693z M187.561,129.693"/>
	<path d="M280.03,129.693c0,16.946-13.624,30.688-30.484,30.688c-16.861,0-30.484-13.742-30.484-30.688
		c0-16.895,13.624-30.625,30.484-30.625C266.406,99.068,280.03,112.799,280.03,129.693L280.03,129.693z M280.03,129.693"/>
	<path d="M320.651,341.231c-10.287,14.865-19.896,27.876-27.887,38.265c79.435,4.779,131.535,22.014,150.892,34.861
		c-22.694,15.029-90.124,36.197-194.11,36.197c-103.936,0-171.366-21.168-194.06-36.197c19.357-12.797,71.407-30.033,150.742-34.861
		c-7.992-10.389-17.638-23.35-27.888-38.215C80.576,350.926,9.571,379.988,9.571,414.357c0,42.262,107.461,76.543,239.975,76.543
		c132.552,0,240.025-34.281,240.025-76.543C489.571,379.988,418.465,350.926,320.651,341.231L320.651,341.231z M320.651,341.231"/>
</g>
</svg>
