<?xml version="1.0" encoding="utf-8"?>
<!-- Generator: Adobe Illustrator 17.0.0, SVG Export Plug-In . SVG Version: 6.00 Build 0)  -->
<!DOCTYPE svg PUBLIC "-//W3C//DTD SVG 1.1//EN" "http://www.w3.org/Graphics/SVG/1.1/DTD/svg11.dtd">
<svg version="1.1" id="Capa_2" xmlns="http://www.w3.org/2000/svg" xmlns:xlink="http://www.w3.org/1999/xlink" x="0px" y="0px"
	 width="500px" height="500px" viewBox="0 0 500 500" enable-background="new 0 0 500 500" xml:space="preserve">
<g>
	<circle cx="250" cy="70.053" r="60.053"/>
	<path d="M251.006,149.472l0-0.031c-0.341,0-0.668,0.013-1.006,0.015c-0.338-0.002-0.665-0.015-1.006-0.015l0,0.031
		c-98.094,1.298-98.388,96.641-98.388,96.641v43.932c0,11.007,8.923,19.929,19.929,19.929h19.579v80.257
		c0,11.007,8.923,19.929,19.929,19.929h79.581c11.007,0,19.929-8.923,19.929-19.929v-80.257h19.911
		c11.007,0,19.929-8.923,19.929-19.929v-43.932C349.394,246.112,349.1,150.769,251.006,149.472z"/>
	<path d="M449.781,409.069c0-25.167-28.402-47.651-72.946-62.494l-13.07,38.075c28.12,6.827,45.46,16.167,45.46,26.47
		c0,20.891-71.26,37.83-159.225,37.868c-87.965-0.038-159.225-16.977-159.225-37.868c0-10.303,17.34-19.643,45.46-26.47
		l-13.07-38.075c-44.544,14.843-72.946,37.327-72.946,62.494c0,44.627,89.299,80.815,199.561,80.929V490
		c0.074,0,0.146-0.001,0.22-0.001c0.074,0,0.146,0.001,0.22,0.001v-0.002C360.482,489.884,449.781,453.696,449.781,409.069z"/>
</g>
</svg>
