<?xml version="1.0" encoding="utf-8"?>
<!-- Generator: Adobe Illustrator 17.0.0, SVG Export Plug-In . SVG Version: 6.00 Build 0)  -->
<!DOCTYPE svg PUBLIC "-//W3C//DTD SVG 1.1//EN" "http://www.w3.org/Graphics/SVG/1.1/DTD/svg11.dtd">
<svg version="1.1" id="Capa_1" xmlns="http://www.w3.org/2000/svg" xmlns:xlink="http://www.w3.org/1999/xlink" x="0px" y="0px"
	 width="500px" height="500px" viewBox="0 0 500 500" enable-background="new 0 0 500 500" xml:space="preserve">
<g>
	<path d="M430.248,432.992c32.967,0,59.752-26.785,59.752-59.752V126.762c0-32.967-26.785-59.754-59.752-59.754H69.754
		C36.787,67.008,10,93.795,10,126.762v246.382c0,32.966,26.787,59.752,59.754,59.752h360.494V432.992z M71.128,150.214
		c-6.18-5.298-6.966-14.522-1.668-20.702c5.3-6.18,14.522-6.967,20.702-1.667l159.838,135.599l159.933-135.699
		c6.185-5.3,15.504-4.513,20.707,1.667c5.298,6.185,4.513,15.504-1.667,20.707l-114.117,96.941L429.557,354.99
		c5.888,5.59,6.185,14.914,0.59,20.803c-2.942,3.037-6.77,4.609-10.694,4.609c-3.632,0-7.258-1.376-10.104-4.025L292.29,266.289
		l-32.674,27.769c-2.746,2.352-6.182,3.531-9.515,3.531c-3.435,0-6.775-1.179-9.52-3.531l-32.771-27.769L90.752,376.477
		c-2.845,2.649-6.477,4.025-10.104,4.025c-3.93,0-7.853-1.572-10.699-4.614c-5.592-5.888-5.298-15.207,0.589-20.803L185.24,247.059
		L71.128,150.214z M71.128,150.214"/>
</g>
</svg>
