<?xml version="1.0" encoding="utf-8"?>
<!-- Generator: Adobe Illustrator 17.0.0, SVG Export Plug-In . SVG Version: 6.00 Build 0)  -->
<!DOCTYPE svg PUBLIC "-//W3C//DTD SVG 1.1//EN" "http://www.w3.org/Graphics/SVG/1.1/DTD/svg11.dtd">
<svg version="1.1" id="Capa_1" xmlns="http://www.w3.org/2000/svg" xmlns:xlink="http://www.w3.org/1999/xlink" x="0px" y="0px"
	 width="500px" height="500px" viewBox="0 0 500 500" enable-background="new 0 0 500 500" xml:space="preserve">
<path d="M355.002,10H144.998c-24.746,0-44.997,20.251-44.997,44.997v389.999c0,24.751,20.251,45.003,44.997,45.003h210.004
	c24.746,0,44.997-20.252,44.997-45.003V54.997C399.999,30.251,379.748,10,355.002,10L355.002,10z M190.001,32.499h119.997V47.5
	H190.001V32.499z M250,459.998c-16.567,0-30.002-13.431-30.002-30.002c0-16.566,13.435-29.996,30.002-29.996
	c16.567,0,30.002,13.431,30.002,29.996C280.002,446.567,266.567,459.998,250,459.998L250,459.998z M369.997,369.997H130.003V69.999
	h239.994V369.997z M369.997,369.997"/>
</svg>
