<?xml version="1.0" encoding="utf-8"?>
<!-- Generator: Adobe Illustrator 17.0.0, SVG Export Plug-In . SVG Version: 6.00 Build 0)  -->
<!DOCTYPE svg PUBLIC "-//W3C//DTD SVG 1.1//EN" "http://www.w3.org/Graphics/SVG/1.1/DTD/svg11.dtd">
<svg version="1.1" id="Capa_1" xmlns="http://www.w3.org/2000/svg" xmlns:xlink="http://www.w3.org/1999/xlink" x="0px" y="0px"
	 width="500px" height="500px" viewBox="0 0 500 500" enable-background="new 0 0 500 500" xml:space="preserve">
<g>
	<path d="M201.38,358.925l144.03-108.061l-144.03-108.06V358.925z M249.44,10.865c-131.941,0-240,108.06-240,240
		c0,131.941,108.06,240.001,240,240.001c131.94,0,240-108.061,240-240.001C489.44,118.924,381.38,10.865,249.44,10.865
		L249.44,10.865z M249.44,442.805c-105.601,0-191.941-86.34-191.941-191.941c0-105.6,86.34-191.94,191.941-191.94
		c105.6,0,191.941,86.34,191.941,191.94C441.381,356.465,355.04,442.805,249.44,442.805L249.44,442.805z M249.44,442.805"/>
</g>
</svg>
