<?xml version="1.0" encoding="utf-8"?>
<!-- Generator: Adobe Illustrator 17.0.0, SVG Export Plug-In . SVG Version: 6.00 Build 0)  -->
<!DOCTYPE svg PUBLIC "-//W3C//DTD SVG 1.1//EN" "http://www.w3.org/Graphics/SVG/1.1/DTD/svg11.dtd">
<svg version="1.1" id="Capa_1" xmlns="http://www.w3.org/2000/svg" xmlns:xlink="http://www.w3.org/1999/xlink" x="0px" y="0px"
	 width="500px" height="500px" viewBox="0 0 500 500" enable-background="new 0 0 500 500" xml:space="preserve">
<g>
	<path fill="#020305" d="M274.029,154.03h-48.059v71.94h-71.94v48.06h71.94v71.94h48.059v-71.94h71.94v-48.06h-71.94V154.03z
		 M250,10c-131.941,0-240,108.06-240,240C10,381.94,118.06,490,250,490c131.94,0,240-108.061,240-240.001
		C490,118.059,381.94,10,250,10L250,10z M250,441.94C144.4,441.94,58.06,355.6,58.06,249.999c0-105.6,86.34-191.94,191.941-191.94
		c105.6,0,191.941,86.34,191.941,191.94C441.941,355.6,355.6,441.94,250,441.94L250,441.94z M250,441.94"/>
</g>
</svg>
