<?xml version="1.0" encoding="utf-8"?>
<!-- Generator: Adobe Illustrator 17.0.0, SVG Export Plug-In . SVG Version: 6.00 Build 0)  -->
<!DOCTYPE svg PUBLIC "-//W3C//DTD SVG 1.1//EN" "http://www.w3.org/Graphics/SVG/1.1/DTD/svg11.dtd">
<svg version="1.1" id="Capa_1" xmlns="http://www.w3.org/2000/svg" xmlns:xlink="http://www.w3.org/1999/xlink" x="0px" y="0px"
	 width="500px" height="500px" viewBox="0 0 500 500" enable-background="new 0 0 500 500" xml:space="preserve">
<g>
	<path d="M275.552,312.547c54.101,0,98.095-43.997,98.095-98.095c0-54.101-43.995-98.095-98.095-98.095
		c-54.099,0-98.093,43.994-98.093,98.095C177.459,268.55,221.453,312.547,275.552,312.547L275.552,312.547z M275.552,312.547"/>
	<path d="M192.142,332.017c-37.787,0-68.414,30.627-68.414,68.414v76.413c0,7.262,5.892,13.156,13.156,13.156h277.336
		c7.264,0,13.156-5.895,13.156-13.156v-74.519c1.159-1.999,2.21-4.157,3.053-6.418l53.68-142.09
		c1.788-4.736,2.737-9.788,2.737-14.894V79.467c0-23.263-18.841-42.101-42.101-42.101c-23.261,0-42.101,18.837-42.101,42.101
		v151.771l-38.048,100.778H192.142z M192.142,332.017"/>
	<path d="M26.212,103.727H57.26c6.527,0,12.051-4.736,12.999-11.157c1.789-11.682,5.42-20.313,10.788-25.524
		c5-4.842,11.895-7.208,21.156-7.208c9.58,0,16.893,2.631,22.471,8.102c5.579,5.473,8.159,12.051,8.159,20.789
		c0,4.106-0.949,7.894-2.896,11.578c-0.999,1.84-4.892,7.524-19.735,20.102c-13.786,11.684-23.101,22.682-28.523,33.575
		c-5.525,11.106-8.21,27.261-8.21,49.26c0,7.262,5.895,13.156,13.156,13.156h28.05c7.262,0,13.156-5.895,13.156-13.156
		c0-16.998,2.053-23.947,3.263-26.578c0.948-2.104,4.895-8.315,20.523-21.261c14.526-12.051,24.314-23.049,29.893-33.575
		c5.735-10.787,8.629-22.628,8.629-35.155c0-22.366-8.472-41.048-25.26-55.574C148.672,17.105,127.516,10,101.992,10
		c-24.311,0-44.889,7.262-61.044,21.523C24.633,45.944,15.319,65.468,13.214,89.517C12.477,97.094,18.528,103.727,26.212,103.727
		L26.212,103.727z M26.212,103.727"/>
	<path d="M114.57,290.811c7.262,0,13.156-5.892,13.156-13.156v-27.996c0-7.262-5.895-13.156-13.156-13.156H86.574
		c-7.262,0-13.156,5.895-13.156,13.156v27.996c0,7.264,5.895,13.156,13.156,13.156H114.57z M114.57,290.811"/>
</g>
</svg>
