<?xml version="1.0" encoding="utf-8"?>
<!-- Generator: Adobe Illustrator 17.0.0, SVG Export Plug-In . SVG Version: 6.00 Build 0)  -->
<!DOCTYPE svg PUBLIC "-//W3C//DTD SVG 1.1//EN" "http://www.w3.org/Graphics/SVG/1.1/DTD/svg11.dtd">
<svg version="1.1" id="Layer_1" xmlns="http://www.w3.org/2000/svg" xmlns:xlink="http://www.w3.org/1999/xlink" x="0px" y="0px"
	 width="500px" height="500px" viewBox="0 0 500 500" enable-background="new 0 0 500 500" xml:space="preserve">
<g>
	<g>
		<path fill="#181818" d="M490,450.804H10V107.028h480V450.804z M27.35,433.455h445.301V124.378H27.35V433.455z"/>
		<path fill="#181818" d="M490,124.378H10V49.196h480V124.378z M27.35,107.028h445.301V66.547H27.35V107.028z"/>
		<g>
			<rect x="54.334" y="78.113" fill="#181818" width="17.349" height="17.349"/>
			<rect x="89.033" y="78.113" fill="#181818" width="17.35" height="17.349"/>
			<rect x="123.732" y="78.113" fill="#181818" width="17.349" height="17.349"/>
		</g>
	</g>
	<g>
		<path fill="#181818" d="M319.393,403.896H180.598v-71.327h138.796V403.896z M197.947,386.546h104.097v-36.628H197.947V386.546z"/>
		<g>
			<path fill="#181818" d="M139.799,225.263H68.472v-71.327h71.327V225.263z M85.821,207.913h36.628v-36.628H85.821V207.913z"/>
			<path fill="#181818" d="M431.528,225.263H122.449v-71.327h309.079V225.263z M139.799,207.913h274.38v-36.628h-274.38V207.913z"/>
			<rect x="180.598" y="180.925" fill="#181818" width="138.796" height="17.35"/>
		</g>
		<g>
			<path fill="#181818" d="M139.799,314.587H68.472V243.26h71.327V314.587z M85.821,297.238h36.628V260.61H85.821V297.238z"/>
			<path fill="#181818" d="M431.528,314.587H122.449V243.26h309.079V314.587z M139.799,297.238h274.38V260.61h-274.38V297.238z"/>
			<g>
				<rect x="180.598" y="270.242" fill="#181818" width="17.349" height="17.349"/>
				<rect x="210.959" y="270.242" fill="#181818" width="17.35" height="17.349"/>
				<rect x="241.321" y="270.242" fill="#181818" width="17.349" height="17.349"/>
				<rect x="271.683" y="270.242" fill="#181818" width="17.349" height="17.349"/>
				<rect x="302.044" y="270.242" fill="#181818" width="17.349" height="17.349"/>
			</g>
		</g>
	</g>
</g>
</svg>
