<?xml version="1.0" encoding="utf-8"?>
<!-- Generator: Adobe Illustrator 17.0.0, SVG Export Plug-In . SVG Version: 6.00 Build 0)  -->
<!DOCTYPE svg PUBLIC "-//W3C//DTD SVG 1.1//EN" "http://www.w3.org/Graphics/SVG/1.1/DTD/svg11.dtd">
<svg version="1.1" id="Capa_1" xmlns="http://www.w3.org/2000/svg" xmlns:xlink="http://www.w3.org/1999/xlink" x="0px" y="0px"
	 width="500px" height="500px" viewBox="0 0 500 500" enable-background="new 0 0 500 500" xml:space="preserve">
<g>
	<path d="M479.334,427.124l-98.941-98.937c23.841-34.441,35.769-72.803,35.769-115.104c0-27.506-5.342-53.804-16.008-78.902
		c-10.684-25.085-25.103-46.731-43.27-64.899c-18.172-18.172-39.796-32.609-64.899-43.275C266.882,15.342,240.589,10,213.083,10
		s-53.803,5.342-78.902,16.008C109.096,36.674,87.45,51.11,69.282,69.283C51.11,87.45,36.674,109.096,26.008,134.181
		C15.342,159.279,10,185.577,10,213.083c0,27.506,5.342,53.781,16.008,78.884c10.666,25.103,25.103,46.731,43.275,64.899
		c18.167,18.185,39.814,32.604,64.899,43.288c25.098,10.666,51.396,16.008,78.902,16.008c42.301,0,80.681-11.927,115.104-35.786
		l98.937,98.663c6.913,7.298,15.561,10.962,25.948,10.962c10.011,0,18.672-3.664,25.966-10.962
		c7.316-7.311,10.963-15.972,10.963-25.966C490,442.888,486.455,434.227,479.334,427.124L479.334,427.124z M304.381,304.381
		c-25.293,25.288-55.72,37.928-91.298,37.928c-35.578,0-66.005-12.653-91.298-37.928c-25.293-25.293-37.928-55.72-37.928-91.298
		s12.635-66.023,37.928-91.298c25.293-25.293,55.72-37.933,91.298-37.933c35.578,0,66.005,12.64,91.298,37.933
		c25.289,25.275,37.946,55.72,37.946,91.298S329.67,279.088,304.381,304.381L304.381,304.381z M304.381,304.381"/>
</g>
</svg>
