<?xml version="1.0" encoding="utf-8"?>
<!-- Generator: Adobe Illustrator 17.0.0, SVG Export Plug-In . SVG Version: 6.00 Build 0)  -->
<!DOCTYPE svg PUBLIC "-//W3C//DTD SVG 1.1//EN" "http://www.w3.org/Graphics/SVG/1.1/DTD/svg11.dtd">
<svg version="1.1" id="Capa_1" xmlns="http://www.w3.org/2000/svg" xmlns:xlink="http://www.w3.org/1999/xlink" x="0px" y="0px"
	 width="500px" height="500px" viewBox="0 0 500 500" enable-background="new 0 0 500 500" xml:space="preserve">
<path fill="#211915" d="M382.438,479.544c-4.66,0-9.237-1.296-13.291-3.778l-119.136-71.859l-119.177,71.887
	c-11.002,6.563-25.727,3.695-33.503-6.177c-4.839-6.122-6.577-14.035-4.743-21.729l31.449-135.446L18.84,221.322
	c-7.845-6.894-10.768-17.648-7.555-27.464c3.226-9.817,11.954-16.738,22.225-17.648l138.645-11.871L226.38,36.2
	c3.943-9.527,13.236-15.745,23.631-15.745c10.368,0,19.674,6.204,23.673,15.814l54.184,128.07l138.617,11.871
	c10.368,0.91,19.109,7.914,22.28,17.855c3.171,9.885,0.11,20.612-7.776,27.326l-104.976,91.051l31.463,135.529
	c1.792,7.611,0.055,15.552-4.798,21.701C397.797,475.849,390.242,479.544,382.438,479.544z M250.011,370.928l129.807,78.312
	l-35.185-147l115.069-99.751l-151.191-11.457L250.011,52.786l-58.499,138.245L41.782,203.84l113.607,98.4l-34.082,146.779
	L250.011,370.928z"/>
</svg>
