<?xml version="1.0" encoding="utf-8"?>
<!-- Generator: Adobe Illustrator 17.0.0, SVG Export Plug-In . SVG Version: 6.00 Build 0)  -->
<!DOCTYPE svg PUBLIC "-//W3C//DTD SVG 1.1//EN" "http://www.w3.org/Graphics/SVG/1.1/DTD/svg11.dtd">
<svg version="1.1" id="Capa_1" xmlns="http://www.w3.org/2000/svg" xmlns:xlink="http://www.w3.org/1999/xlink" x="0px" y="0px"
	 width="500px" height="500px" viewBox="0 0 500 500" enable-background="new 0 0 500 500" xml:space="preserve">
<path d="M261.319,28.693l61.136,144.477l156.273,13.367c10.81,0.955,15.275,14.568,6.96,21.651L367.205,310.932l35.481,152.793
	c2.526,10.594-9.024,19.002-18.294,13.335l-134.375-81.063l-134.375,81.063c-9.271,5.544-20.821-2.742-18.294-13.335l35.48-152.793
	L14.222,208.188c-8.192-7.206-3.727-20.696,7.084-21.651l156.272-13.367l61.136-144.477C242.902,18.59,257.101,18.59,261.319,28.693
	L261.319,28.693z M261.319,28.693"/>
</svg>
