<?xml version="1.0" encoding="utf-8"?>
<!-- Generator: Adobe Illustrator 17.0.0, SVG Export Plug-In . SVG Version: 6.00 Build 0)  -->
<!DOCTYPE svg PUBLIC "-//W3C//DTD SVG 1.1//EN" "http://www.w3.org/Graphics/SVG/1.1/DTD/svg11.dtd">
<svg version="1.1" id="icons" xmlns="http://www.w3.org/2000/svg" xmlns:xlink="http://www.w3.org/1999/xlink" x="0px" y="0px"
	 width="500px" height="500px" viewBox="0 0 500 500" enable-background="new 0 0 500 500" xml:space="preserve">
<g>
	<g>
		<g>
			<g>
				<rect x="242.5" y="332.5" fill="#363F40" width="15" height="157.5"/>
			</g>
			<g>
				<path fill="#363F40" d="M250,100c-24.815,0-45-20.186-45-45s20.185-45,45-45c24.814,0,45,20.185,45,45S274.814,100,250,100z
					 M250,25c-16.542,0-30,13.454-30,30s13.458,30,30,30c16.542,0,30-13.454,30-30S266.542,25,250,25z"/>
			</g>
			<g>
				<path fill="#363F40" d="M340,175h-15v-7.5c0-20.676-16.824-37.5-37.5-37.5h-75c-20.676,0-37.5,16.824-37.5,37.5v7.5h-15v-7.5
					c0-28.945,23.551-52.5,52.5-52.5h75c28.949,0,52.5,23.555,52.5,52.5V175z"/>
			</g>
			<g>
				<rect x="115" y="362.5" fill="#363F40" width="15" height="127.5"/>
			</g>
			<g>
				<path fill="#363F40" d="M122.5,152.5c-20.676,0-37.5-16.824-37.5-37.5s16.824-37.5,37.5-37.5c20.676,0,37.5,16.824,37.5,37.5
					S143.176,152.5,122.5,152.5z M122.5,92.5c-12.407,0-22.5,10.093-22.5,22.5s10.093,22.5,22.5,22.5
					c12.407,0,22.5-10.093,22.5-22.5S134.907,92.5,122.5,92.5z"/>
			</g>
			<g>
				<path fill="#363F40" d="M175,490h-15V332.5h30v-120c0-16.546-13.458-30-30-30H85c-16.542,0-30,13.454-30,30v120h30V490H70V347.5
					H40v-135c0-24.814,20.185-45,45-45h75c24.814,0,45,20.186,45,45v135h-30V490z"/>
			</g>
			<g>
				<rect x="370" y="362.5" fill="#363F40" width="15" height="127.5"/>
			</g>
			<g>
				<path fill="#363F40" d="M377.5,152.5c-20.676,0-37.5-16.824-37.5-37.5s16.824-37.5,37.5-37.5c20.676,0,37.5,16.824,37.5,37.5
					S398.176,152.5,377.5,152.5z M377.5,92.5c-12.407,0-22.5,10.093-22.5,22.5s10.093,22.5,22.5,22.5
					c12.407,0,22.5-10.093,22.5-22.5S389.907,92.5,377.5,92.5z"/>
			</g>
			<g>
				<path fill="#363F40" d="M430,490h-15V332.5h30v-120c0-16.546-13.458-30-30-30h-75c-16.542,0-30,13.454-30,30v120h30V490h-15
					V347.5h-30v-135c0-24.814,20.185-45,45-45h75c24.814,0,45,20.186,45,45v135h-30V490z"/>
			</g>
			<g>
				<rect x="242.5" y="145" fill="#363F40" width="15" height="15"/>
			</g>
			<g>
				<rect x="242.5" y="175" fill="#363F40" width="15" height="15"/>
			</g>
			<g>
				<rect x="370" y="197.5" fill="#363F40" width="15" height="15"/>
			</g>
			<g>
				<rect x="115" y="197.5" fill="#363F40" width="15" height="15"/>
			</g>
		</g>
		<g>
			<rect x="190" y="340" fill="#363F40" width="15" height="150"/>
		</g>
		<g>
			<rect x="295" y="340" fill="#363F40" width="15" height="150"/>
		</g>
	</g>
</g>
</svg>
