<?xml version="1.0" encoding="utf-8"?>
<!-- Generator: Adobe Illustrator 17.0.0, SVG Export Plug-In . SVG Version: 6.00 Build 0)  -->
<!DOCTYPE svg PUBLIC "-//W3C//DTD SVG 1.1//EN" "http://www.w3.org/Graphics/SVG/1.1/DTD/svg11.dtd">
<svg version="1.1" id="Capa_1" xmlns="http://www.w3.org/2000/svg" xmlns:xlink="http://www.w3.org/1999/xlink" x="0px" y="0px"
	 width="500px" height="500px" viewBox="0 0 500 500" enable-background="new 0 0 500 500" xml:space="preserve">
<g>
	<path fill-rule="evenodd" clip-rule="evenodd" d="M414.959,69.976h-90.012V40.035c0-16.63-13.387-30.035-29.942-30.035h-90.012
		c-16.555,0-30.036,13.405-30.036,30.035v29.941H85.041c-16.63,0-30.035,13.406-30.035,30.036v29.942
		c0,16.555,13.405,30.034,29.96,30.034h329.993c16.63,0,30.034-13.48,30.034-30.034v-29.942
		C444.994,83.382,431.589,69.976,414.959,69.976L414.959,69.976z M295.006,69.976h-90.012V54.959
		c0-8.268,6.731-14.924,15.017-14.924h59.977c8.268,0,15.017,6.656,15.017,14.924V69.976z M85.041,429.929
		c0,33.185,26.791,60.071,59.977,60.071h209.964c33.11,0,59.977-26.885,59.977-60.071V190.023H85.041V429.929z M310.024,234.983
		c0-8.268,6.656-15.017,14.924-15.017c8.287,0,15.017,6.749,15.017,15.017v180.023c0,8.268-6.731,14.924-15.017,14.924
		c-8.268,0-14.924-6.655-14.924-14.924V234.983z M235.029,234.983c0-8.268,6.656-15.017,14.924-15.017
		c8.287,0,15.018,6.749,15.018,15.017v180.023c0,8.268-6.731,14.924-15.018,14.924c-8.268,0-14.924-6.655-14.924-14.924V234.983z
		 M160.035,234.983c0-8.268,6.655-15.017,14.924-15.017c8.287,0,15.018,6.749,15.018,15.017v180.023
		c0,8.268-6.731,14.924-15.018,14.924c-8.268,0-14.924-6.655-14.924-14.924V234.983z M160.035,234.983"/>
</g>
</svg>
