<?xml version="1.0" encoding="utf-8"?>
<!-- Generator: Adobe Illustrator 17.0.0, SVG Export Plug-In . SVG Version: 6.00 Build 0)  -->
<!DOCTYPE svg PUBLIC "-//W3C//DTD SVG 1.1//EN" "http://www.w3.org/Graphics/SVG/1.1/DTD/svg11.dtd">
<svg version="1.1" id="Layer_1" xmlns="http://www.w3.org/2000/svg" xmlns:xlink="http://www.w3.org/1999/xlink" x="0px" y="0px"
	 width="500px" height="500px" viewBox="0 0 500 500" enable-background="new 0 0 500 500" xml:space="preserve">
<path d="M430,10H70c-33.137,0-60,26.863-60,60v360c0,33.137,26.863,60,60,60h360c33.137,0,60-26.863,60-60V70
	C490,36.863,463.137,10,430,10z M421.413,141.681c-9.58,14.347-21.463,26.739-35.297,36.847c0.106,2.795,0.176,5.569,0.176,8.382
	c0,100.705-76.64,204.89-204.89,204.89c-39.217,0-77.376-11.197-110.388-32.362c-0.694-0.439-0.987-1.28-0.712-2.056
	c0.269-0.756,1.061-1.231,1.855-1.143c5.534,0.65,11.194,0.988,16.819,0.988c30.515,0,59.379-9.425,83.812-27.319
	c-29.285-2.476-54.439-22.289-63.489-50.555c-0.193-0.58-0.056-1.231,0.352-1.688c0.395-0.457,1.034-0.668,1.632-0.562
	c8.106,1.547,16.368,1.652,24.31,0.369c-30.205-9.404-51.422-37.667-51.422-69.87l0.017-0.949c0-0.618,0.343-1.16,0.868-1.477
	c0.545-0.302,1.189-0.302,1.726,0c7.875,4.357,16.591,7.169,25.514,8.244c-17.344-13.837-27.545-34.807-27.545-57.217
	c0-12.938,3.434-25.664,9.923-36.773c0.278-0.498,0.782-0.829,1.368-0.865c0.58-0.067,1.125,0.179,1.495,0.633
	c35.507,43.562,87.75,70.386,143.607,73.828c-0.926-4.693-1.4-9.527-1.4-14.396c0-40.324,32.801-73.142,73.143-73.142
	c19.828,0,38.988,8.141,52.717,22.397c15.486-3.164,30.235-8.863,43.84-16.931c0.633-0.369,1.424-0.314,1.987,0.14
	c0.562,0.44,0.791,1.195,0.58,1.898c-4.623,14.432-13.623,27.018-25.717,36.126c11.391-1.989,22.447-5.347,32.942-10.002
	c0.721-0.316,1.547-0.123,2.056,0.472C421.782,140.187,421.835,141.051,421.413,141.681z"/>
</svg>
