<?xml version="1.0" encoding="utf-8"?>
<!-- Generator: Adobe Illustrator 17.0.0, SVG Export Plug-In . SVG Version: 6.00 Build 0)  -->
<!DOCTYPE svg PUBLIC "-//W3C//DTD SVG 1.1//EN" "http://www.w3.org/Graphics/SVG/1.1/DTD/svg11.dtd">
<svg version="1.1" id="Capa_1" xmlns="http://www.w3.org/2000/svg" xmlns:xlink="http://www.w3.org/1999/xlink" x="0px" y="0px"
	 width="500px" height="500px" viewBox="0 0 500 500" enable-background="new 0 0 500 500" xml:space="preserve">
<g>
	<path d="M393.819,328.122c2.007-0.606,4.299-0.738,6.818-0.303c10.796,1.629,15.682-5.038,10.72-14.793
		c-4.962-9.848,0-18.353,10.947-18.939c10.947-0.663,14.281-8.144,7.406-16.724c-6.818-8.503-3.788-17.898,6.799-20.796
		c10.588-2.878,12.292-10.947,3.769-17.898c-8.504-6.875-7.463-16.724,2.235-21.743c9.83-5.038,9.83-13.182,0-18.277
		c-9.698-5.038-10.739-14.792-2.235-21.762c8.523-6.95,6.742-14.943-3.769-17.822c-10.587-2.879-13.617-12.273-6.799-20.871
		c6.875-8.504,3.541-16.042-7.406-16.649c-10.947-0.662-15.909-9.166-10.947-18.94c4.963-9.754,0.076-16.497-10.72-14.791
		c-10.891,1.628-17.462-5.626-14.659-16.27c2.822-10.587-3.334-16.061-13.618-12.216c-10.209,3.845-18.201-1.913-17.671-12.86
		c0.512-10.947-6.591-15.019-15.758-9.11c-9.261,5.928-18.276,1.932-20.057-8.883c-1.704-10.871-9.546-13.39-17.311-5.682
		c-7.765,7.689-17.462,5.682-21.382-4.527c-3.996-10.208-12.197-11.099-18.201-1.913c-3.258,4.962-7.615,6.951-11.914,6.515
		c-4.356,0.511-8.731-1.553-12.045-6.515c-6.004-9.186-14.129-8.295-18.125,1.913c-3.997,10.209-13.618,12.216-21.383,4.527
		c-7.841-7.709-15.626-5.189-17.387,5.625c-1.78,10.872-10.815,14.868-19.981,8.94c-9.243-5.985-16.345-1.837-15.834,9.11
		c0.512,10.947-7.405,16.705-17.69,12.86c-10.265-3.92-16.345,1.629-13.599,12.216c2.803,10.569-3.769,17.898-14.583,16.27
		c-10.872-1.705-15.683,4.962-10.72,14.791c4.886,9.773,0,18.277-10.947,18.883c-10.947,0.663-14.356,8.125-7.482,16.705
		c6.876,8.598,3.845,17.917-6.723,20.796c-10.588,2.878-12.292,10.947-3.788,17.898c8.523,6.894,7.482,16.724-2.292,21.762
		c-9.754,5.019-9.754,13.163,0,18.201c9.773,5.094,10.815,14.868,2.292,21.819c-8.504,6.875-6.8,14.943,3.788,17.822
		c10.568,2.898,13.599,12.292,6.723,20.871c-6.8,8.504-3.466,16.061,7.482,16.649c10.947,0.662,15.833,9.166,10.947,18.94
		c-4.963,9.773-0.151,16.42,10.72,14.792c2.518-0.436,4.735-0.284,6.742,0.227L45.952,440.87h63.618l32.33,49.055L202.792,389.6
		c6.743-3.484,13.845-0.662,17.103,7.69c3.996,10.208,12.122,11.022,18.125,1.932c3.239-4.962,7.614-6.97,11.913-6.591v0.076
		c4.356-0.455,8.788,1.553,12.046,6.591c6.004,9.091,14.205,8.277,18.125-1.932c3.258-8.353,10.36-11.175,17.103-7.69L358.079,490
		l32.349-49.054h63.619L393.819,328.122z M328.117,350.755l-2.292,1.25c-22.557,11.913-48.239,18.807-75.456,18.807
		c-0.076,0-0.303-0.151-0.303-0.151c-0.132,0-0.284,0.076-0.435,0.076c-27.236,0-52.899-6.894-75.4-18.788l-2.292-1.269
		c-49.413-27.292-82.937-79.603-82.937-139.604c0-88.032,72.066-159.662,160.628-159.662c0.151,0,0.303,0.075,0.303,0.075
		c0.132,0,0.284,0,0.436,0c88.562,0,160.609,71.631,160.609,159.663C410.979,271.151,377.474,323.463,328.117,350.755
		L328.117,350.755z M328.117,350.755"/>
	<path d="M250.673,64.063c-0.228,0-0.607-0.076-0.607-0.076c-0.208,0-0.435,0-0.662,0c-81.081,0-146.859,65.703-146.859,146.784
		c0,81.1,65.778,146.858,146.859,146.858c0.151,0,0.379,0,0.531-0.075c0,0,0.511,0.151,0.739,0.151
		c81.081,0,146.782-65.76,146.782-146.859C397.455,129.765,331.754,64.063,250.673,64.063z M338.926,250.714
		c-18.808,36.855-65.188,37.348-87.205,17.84c-2.037-1.8-3.883-5.299-5.833-5.306c-1.985-0.015-3.838,3.506-6.015,5.136
		c-18.163,13.579-37.956,17.109-58.923,7.835c-13.819-6.113-20.224-18.239-22.046-32.763c-2.053-16.348-0.418-32.802-0.939-46.328
		c0-16.371,0.173-29.874-0.084-43.368c-0.102-5.007,2.257-7.075,6.675-7.283c5.09-0.23,10.207-0.199,15.301-0.022
		c4.486,0.161,6.55,2.214,6.494,7.234c-0.253,23.17-0.117,46.337-0.109,69.505c0.005,3.997,0.19,7.981,0.835,11.971
		c3.322,20.469,22.488,28.959,40.022,17.57c8.3-5.398,12.014-13.079,11.944-23.038c-0.02-2.514-1.899-21.514-5.484-34.317
		c-3.283-11.725-6.67-14.771-7.215-24.845c-0.013-0.131-0.013-0.268-0.025-0.406c-0.006-0.132-0.016-0.262-0.02-0.401
		c-0.052-0.676-0.104-1.346-0.104-2.037c0-15.133,12.269-27.398,27.399-27.398c15.132,0,27.4,12.265,27.4,27.398
		c0,1.668-0.172,3.298-0.458,4.882c-0.868,8.505-4.004,11.91-7.055,22.807c-3.587,12.803-6.235,30.835-6.235,32.872
		c0,1.822-0.023,3.653,0.061,5.476c0.571,12.201,6.245,19.937,16.651,22.759c11.071,3.014,21.644-0.976,28.084-10.626
		c7.469-11.181,9.033-24.006,9.795-36.933c1.072-18.307-2.477-35.754-10.328-52.363c-3.458-7.328-1.87-9.666,6.393-10.32
		c14.505-1.139,20.816,2.561,25.476,15.694C354.077,192.107,353.561,222.034,338.926,250.714z"/>
</g>
</svg>
