<?xml version="1.0" encoding="utf-8"?>
<!-- Generator: Adobe Illustrator 17.0.0, SVG Export Plug-In . SVG Version: 6.00 Build 0)  -->
<!DOCTYPE svg PUBLIC "-//W3C//DTD SVG 1.1//EN" "http://www.w3.org/Graphics/SVG/1.1/DTD/svg11.dtd">
<svg version="1.1" id="Layer_1" xmlns="http://www.w3.org/2000/svg" xmlns:xlink="http://www.w3.org/1999/xlink" x="0px" y="0px"
	 width="500px" height="500px" viewBox="0 0 500 500" enable-background="new 0 0 500 500" xml:space="preserve">
<g>
	<path d="M202,301.02c37.049-19.213,73.775-38.267,110.865-57.498C275.67,224.116,238.949,204.974,202,185.69V301.02z"/>
	<path d="M430,10H70c-33.138,0-60,26.863-60,60v360c0,33.137,26.862,60,60,60h360c33.137,0,60-26.863,60-60V70
		C490,36.863,463.137,10,430,10z M415.275,329.321c-4.271,18.545-19.441,32.239-37.705,34.277
		c-43.225,4.816-86.994,4.852-130.588,4.816c-43.582,0.035-87.346,0-130.585-4.816c-18.266-2.039-33.436-15.733-37.687-34.277
		c-6.085-26.402-6.085-55.248-6.085-82.441s0.073-56.021,6.152-82.424c4.251-18.563,19.427-32.239,37.667-34.277
		c43.248-4.834,87.032-4.852,130.609-4.834c43.576-0.017,87.346,0,130.588,4.834c18.264,2.039,33.434,15.715,37.705,34.277
		c6.082,26.402,6.029,55.231,6.029,82.424S421.357,302.919,415.275,329.321z"/>
</g>
</svg>
